<?xml version="1.0" standalone="no"?>
<!DOCTYPE svg PUBLIC "-//W3C//DTD SVG 20010904//EN"
 "http://www.w3.org/TR/2001/REC-SVG-20010904/DTD/svg10.dtd">
<svg version="1.0" xmlns="http://www.w3.org/2000/svg"
 width="1096.000000pt" height="1096.000000pt" viewBox="0 0 1096.000000 1096.000000"
 preserveAspectRatio="xMidYMid meet">
<metadata>
Created by potrace 1.14, written by Peter Selinger 2001-2017
</metadata>
<g transform="translate(0.000000,1096.000000) scale(0.100000,-0.100000)"
fill="#000000" stroke="none">
<path d="M7260 10084 c-47 -7 -149 -13 -228 -13 -155 -1 -330 -17 -348 -32 -6
-5 -14 -29 -17 -53 -5 -35 -16 -55 -51 -90 -41 -43 -48 -46 -98 -47 -77 -2
-111 -11 -123 -34 -5 -11 -19 -30 -31 -41 -17 -17 -22 -38 -27 -104 -3 -45
-10 -87 -17 -94 -7 -7 -89 -13 -241 -16 -205 -4 -232 -7 -243 -22 -7 -10 -20
-18 -28 -18 -8 0 -23 -9 -33 -20 -10 -11 -24 -20 -30 -20 -8 0 -14 -28 -18
-81 -3 -45 -10 -86 -16 -92 -8 -8 -105 -14 -278 -18 -245 -6 -268 -8 -280 -25
-13 -17 -35 -20 -246 -25 -238 -7 -324 -19 -335 -48 -3 -9 -14 -28 -24 -43
-10 -14 -18 -34 -18 -45 0 -10 -9 -24 -20 -31 -11 -7 -20 -20 -20 -29 0 -9 -5
-31 -11 -48 -14 -38 -52 -55 -125 -55 -54 0 -67 -6 -77 -32 -4 -11 -17 -18
-31 -18 -34 0 -47 -27 -53 -117 -6 -72 -8 -78 -45 -115 l-38 -38 -181 0 c-201
0 -318 -14 -326 -39 -2 -9 -9 -24 -14 -33 -5 -10 -9 -41 -9 -70 0 -108 -36
-150 -137 -156 -37 -3 -67 -10 -74 -18 -6 -8 -17 -14 -24 -14 -7 0 -19 -7 -26
-16 -7 -9 -23 -20 -35 -24 -18 -7 -22 -19 -27 -92 -4 -45 -7 -223 -7 -395 0
-310 0 -312 -22 -336 -21 -22 -59 -47 -72 -47 -15 0 -46 98 -46 144 0 29 -5
57 -11 63 -13 13 -33 46 -53 89 -16 34 -36 41 -135 51 -44 4 -60 11 -87 39
-19 18 -34 38 -34 43 0 24 -41 101 -53 101 -8 0 -27 12 -43 28 l-29 27 -275 3
c-241 3 -277 5 -287 19 -8 10 -13 49 -13 99 0 104 -17 149 -61 158 -48 9 -192
7 -209 -4 -11 -7 -15 -35 -18 -117 -5 -145 -6 -144 134 -150 169 -7 154 5 154
-119 0 -58 5 -124 11 -148 16 -64 31 -67 327 -64 196 2 254 0 264 -10 10 -10
12 -65 10 -245 -1 -128 0 -256 3 -285 8 -65 18 -71 160 -83 54 -5 103 -13 107
-17 5 -5 13 -48 20 -98 6 -49 14 -91 17 -94 4 -3 11 -18 16 -35 6 -17 23 -35
40 -44 17 -8 38 -18 47 -23 10 -4 36 -8 59 -8 22 0 98 -7 167 -16 180 -22 289
-6 312 45 6 14 16 66 21 115 5 50 13 94 17 98 4 4 36 15 72 24 104 26 174 51
182 66 15 28 47 146 54 196 8 62 24 77 99 88 28 4 52 10 55 13 3 3 18 11 35
16 39 13 71 72 80 144 3 31 11 72 17 92 10 35 14 37 67 47 31 6 83 13 116 16
71 6 82 17 90 95 17 160 18 164 50 173 17 5 59 13 95 19 35 5 67 13 70 17 3 4
18 12 34 17 39 13 65 59 76 137 6 34 15 79 21 99 l11 36 116 16 c63 9 120 21
125 26 5 5 16 61 24 124 l16 115 36 11 c20 6 62 15 94 21 80 13 128 38 141 72
6 15 13 28 17 28 4 0 10 21 14 46 15 104 15 104 86 120 57 13 125 -1 140 -28
5 -9 12 -44 15 -77 4 -34 10 -61 14 -61 8 0 26 -130 35 -249 4 -46 10 -94 15
-106 10 -27 45 -35 180 -44 l95 -6 0 -135 0 -135 -100 -9 c-66 -6 -103 -13
-108 -22 -4 -8 -16 -14 -26 -14 -43 0 -51 -19 -59 -150 l-7 -125 -124 -8
c-127 -8 -151 -15 -151 -48 0 -9 -7 -24 -15 -33 -16 -16 -22 -132 -6 -122 5 4
12 -7 16 -23 10 -48 26 -54 160 -59 l124 -5 7 -66 c7 -66 -9 -228 -24 -243
-10 -10 -133 -28 -193 -28 -54 0 -66 -11 -75 -68 -4 -23 -10 -42 -14 -42 -4 0
-9 -47 -12 -105 -3 -58 -8 -108 -12 -112 -4 -5 -60 -9 -124 -11 -175 -4 -159
9 -164 -132 -2 -65 -8 -123 -12 -127 -4 -4 -61 -11 -127 -14 -121 -6 -149 -15
-149 -49 0 -10 -6 -23 -14 -29 -10 -8 -17 -45 -21 -110 l-7 -99 -97 -7 c-56
-4 -102 -12 -111 -20 -8 -8 -27 -18 -41 -24 -31 -11 -39 -44 -39 -166 0 -44
-4 -86 -9 -94 -6 -10 -38 -15 -113 -18 -138 -5 -145 -7 -162 -47 -8 -18 -19
-37 -25 -40 -6 -4 -11 -39 -11 -84 0 -123 4 -119 -108 -127 -60 -4 -101 -12
-109 -21 -8 -8 -23 -14 -32 -14 -35 0 -43 -27 -50 -152 l-6 -123 -87 -3 c-48
-1 -102 1 -120 6 l-33 8 -8 110 c-11 148 -22 182 -65 200 -19 8 -51 14 -72 14
-20 0 -58 3 -84 6 -41 6 -49 11 -60 38 -7 17 -16 57 -20 88 -5 35 -13 58 -22
62 -8 3 -14 17 -14 30 0 15 -8 30 -19 35 -10 6 -84 13 -162 17 -144 6 -185 13
-248 41 -65 29 -204 -11 -217 -63 -4 -14 -4 -74 -2 -134 4 -88 8 -114 23 -130
10 -11 23 -20 28 -20 5 0 15 -8 22 -17 11 -14 44 -17 264 -22 277 -7 269 -4
273 -71 5 -91 -3 -133 -32 -162 -27 -26 -37 -29 -124 -35 -62 -4 -100 -11
-107 -20 -6 -7 -17 -13 -25 -13 -19 0 -26 -69 -22 -199 2 -72 7 -114 15 -119
7 -4 16 -57 22 -131 6 -67 15 -131 21 -140 5 -10 22 -21 38 -24 18 -4 31 -14
35 -26 3 -12 13 -21 25 -21 11 0 35 -7 55 -15 30 -12 36 -21 42 -56 4 -23 16
-50 26 -60 10 -10 19 -24 19 -30 0 -6 14 -32 31 -58 28 -44 35 -49 101 -66 56
-14 79 -27 113 -59 41 -40 42 -43 47 -118 5 -80 18 -108 48 -108 10 0 24 -9
31 -20 11 -14 34 -22 99 -30 47 -6 90 -16 95 -21 13 -13 20 -363 8 -408 -7
-27 -16 -36 -48 -47 -22 -7 -64 -14 -93 -14 -45 0 -55 -3 -59 -20 -3 -11 -9
-21 -14 -21 -5 -1 -13 -3 -19 -4 -5 -1 -14 -3 -20 -4 -14 -2 -30 -69 -30 -126
0 -46 -4 -55 -43 -96 -42 -45 -45 -46 -119 -52 -87 -6 -118 -19 -118 -48 0
-12 -8 -23 -20 -26 -16 -4 -20 -14 -21 -47 0 -22 -6 -66 -12 -96 l-12 -55 -55
-12 c-30 -6 -72 -12 -92 -12 -26 -1 -40 -7 -48 -20 -5 -11 -20 -21 -32 -23
-29 -4 -47 -53 -47 -131 -1 -56 -3 -60 -48 -102 -54 -51 -48 -49 -76 -33 -51
26 -64 52 -70 139 -6 88 -11 97 -77 131 -14 7 -29 18 -35 24 -14 16 -100 24
-170 17 -45 -5 -59 -10 -63 -25 -2 -11 -13 -18 -28 -18 -39 0 -49 -33 -49
-170 0 -153 9 -177 75 -196 25 -8 63 -14 86 -14 52 0 87 -17 113 -56 21 -30
22 -35 8 -75 -19 -55 -43 -62 -162 -49 -49 5 -123 12 -164 14 -60 3 -75 7 -77
21 -3 21 -8 26 -29 29 -13 2 -18 16 -21 63 -5 77 -28 131 -58 143 -13 5 -30
18 -38 28 -16 23 -82 43 -136 42 -20 -1 -44 1 -52 3 -8 3 -25 8 -37 12 -14 5
-23 18 -28 43 -9 47 -32 92 -48 92 -7 0 -18 9 -25 20 -11 18 -23 20 -106 20
-64 0 -97 -4 -104 -13 -6 -7 -15 -41 -21 -75 -8 -50 -7 -70 4 -95 7 -18 16
-39 18 -48 6 -18 55 -29 138 -29 56 0 89 -18 89 -48 0 -7 5 -12 10 -12 6 0 10
-26 10 -57 0 -70 18 -195 28 -205 4 -4 61 -12 127 -18 65 -5 122 -13 128 -19
5 -5 13 -62 18 -127 5 -65 12 -121 17 -126 5 -5 57 -15 116 -23 101 -13 109
-16 142 -49 32 -32 36 -42 44 -118 16 -145 13 -142 106 -151 43 -5 98 -13 121
-19 47 -12 46 -7 58 -171 7 -94 11 -104 38 -113 12 -4 26 -13 32 -20 7 -9 71
-14 240 -17 158 -3 240 -9 262 -18 30 -12 32 -16 38 -78 13 -149 17 -170 32
-183 12 -10 109 -14 432 -19 229 -3 417 -6 419 -7 2 -1 10 -18 18 -37 9 -23
14 -71 14 -145 l0 -110 1260 0 1260 0 0 109 c0 74 5 120 15 145 8 20 16 37 18
38 1 0 189 4 418 7 323 5 420 9 432 19 15 13 19 34 32 183 6 62 8 66 38 78 22
9 105 15 265 18 186 4 235 8 239 19 3 8 13 14 24 14 28 0 39 32 46 128 6 81 8
89 38 119 30 29 41 33 111 38 115 9 120 11 147 57 18 32 26 64 30 127 4 47 11
89 16 94 5 5 50 12 100 16 62 6 97 13 109 24 10 10 24 17 30 17 20 0 31 34 38
126 6 82 9 91 38 120 29 29 38 32 120 38 92 7 126 18 126 38 0 6 7 20 17 30
11 12 18 47 24 109 4 50 11 95 16 100 5 5 47 12 94 16 63 4 95 12 127 30 46
27 48 32 57 147 5 70 9 81 38 111 30 30 38 32 119 38 96 7 128 18 128 46 0 11
6 21 14 24 11 4 14 52 18 239 5 292 6 293 105 303 136 12 162 17 175 32 10 12
14 112 19 432 3 229 7 417 7 418 1 2 18 10 38 18 25 10 71 15 145 15 l109 0 0
1260 0 1260 -115 0 c-84 0 -124 4 -145 15 -17 9 -31 17 -32 18 -1 1 -4 190 -7
419 -5 361 -8 419 -22 433 -11 11 -49 18 -129 25 -62 5 -117 13 -122 18 -17
17 -27 144 -28 335 0 152 -3 189 -14 193 -8 3 -17 16 -20 29 -8 30 -21 34
-127 42 -77 5 -93 10 -118 32 -27 24 -30 34 -36 111 -9 122 -10 125 -57 153
-33 18 -63 26 -128 30 -103 7 -110 14 -110 111 0 43 -6 81 -15 96 -8 14 -18
35 -24 46 -13 28 -22 31 -132 40 -82 6 -97 10 -120 33 -23 23 -27 37 -33 120
-7 101 -17 131 -43 131 -9 0 -21 7 -27 16 -8 11 -37 16 -106 20 -52 3 -109 12
-127 20 -33 15 -33 16 -48 141 -4 32 -14 58 -26 69 -10 9 -19 13 -19 8 0 -5
-7 -1 -15 10 -11 15 -34 21 -106 27 -51 5 -97 13 -102 18 -13 13 -26 85 -27
143 0 28 -6 53 -15 62 -8 8 -15 19 -15 24 0 31 -35 37 -264 43 -127 4 -240 10
-252 13 -34 12 -52 57 -59 142 -8 106 -13 124 -31 124 -8 0 -18 8 -21 18 -4 9
-11 20 -17 24 -17 12 -212 7 -306 -8z m327 -1567 c27 -28 41 -108 21 -128 -7
-8 -19 -26 -25 -41 -9 -19 -22 -29 -48 -34 -19 -3 -35 -10 -35 -15 0 -12 -47
-12 -54 0 -3 4 -23 11 -45 15 -38 6 -40 8 -46 50 -4 24 -3 73 2 108 8 62 9 63
43 70 19 3 64 4 100 2 50 -4 70 -10 87 -27z m-1236 -10 c15 -6 31 -24 38 -42
15 -41 15 -182 0 -191 -17 -10 -191 -18 -232 -10 l-35 7 -4 77 c-3 66 10 136
29 161 15 20 156 18 204 -2z m306 -263 c17 -5 24 -17 30 -53 10 -57 11 -207 1
-216 -9 -9 -258 -9 -267 0 -8 9 -8 236 1 258 6 15 22 17 110 17 57 0 113 -3
125 -6z m620 -8 c14 -14 9 -214 -5 -228 -13 -13 -214 -19 -226 -7 -14 14 -18
139 -6 187 10 43 16 52 38 55 40 7 191 2 199 -7z m-882 -446 l0 -135 -129 -3
c-71 -1 -133 1 -138 6 -10 10 -13 246 -3 262 4 7 55 10 138 8 l132 -3 0 -135z
m555 130 c11 -6 22 -26 26 -48 4 -20 11 -45 16 -55 6 -13 5 -23 -4 -34 -7 -9
-17 -30 -23 -47 -8 -24 -18 -32 -45 -37 -19 -4 -36 -12 -38 -18 -5 -14 -52
-15 -52 -1 0 6 -13 10 -28 10 -51 0 -61 17 -68 111 -10 124 -6 129 107 129 50
0 99 -5 109 -10z m574 -89 c39 -22 43 -39 13 -50 -13 -5 -27 -19 -30 -30 -6
-24 -47 -30 -47 -7 0 7 -7 19 -15 26 -20 16 -19 39 2 62 20 22 39 22 77 -1z
m-1468 -201 l26 -10 -4 -115 c-2 -63 -8 -118 -12 -122 -4 -5 -62 -10 -129 -11
-107 -3 -122 -2 -134 14 -14 19 -17 131 -5 199 6 34 12 41 37 46 49 11 192 10
221 -1z m595 -5 c24 -9 34 -135 16 -195 -16 -52 -30 -58 -127 -58 -105 0 -114
5 -124 69 -5 31 -6 85 -2 122 7 61 9 66 34 71 35 6 182 0 203 -9z m559 -94 c0
-11 5 -23 10 -26 17 -10 11 -43 -10 -58 -17 -12 -27 -12 -58 -2 -47 16 -51 37
-15 74 33 35 73 41 73 12z m1604 -196 c8 -8 21 -15 29 -15 33 0 47 -36 54
-134 3 -53 10 -99 15 -102 4 -3 8 -12 8 -21 0 -22 39 -63 60 -63 9 0 40 -11
68 -25 29 -14 58 -25 66 -25 22 0 26 -34 26 -250 0 -213 -3 -230 -42 -230 -9
0 -25 -8 -35 -19 -13 -13 -39 -20 -93 -25 -101 -9 -111 -19 -117 -130 -4 -63
-9 -86 -19 -86 -8 0 -14 -10 -14 -24 0 -40 -22 -49 -110 -44 -44 3 -82 7 -85
10 -3 2 -11 45 -18 93 l-12 89 -60 15 c-33 9 -61 19 -63 23 -5 12 -72 10 -72
-2 0 -5 -14 -13 -32 -18 -17 -4 -34 -14 -38 -22 -4 -8 -14 -31 -23 -50 -18
-37 -21 -150 -5 -150 12 0 -1 -40 -18 -57 -17 -18 -279 -18 -316 -1 -32 15
-38 41 -38 158 0 73 3 91 20 110 11 13 20 29 20 36 0 21 35 34 92 34 58 0 167
16 177 26 3 3 8 129 11 279 4 232 7 277 21 290 13 13 107 27 247 35 10 0 25
68 32 141 8 81 11 89 44 122 41 41 50 44 138 46 47 1 71 -3 82 -14z m-2471
-47 c9 -11 17 -31 17 -44 0 -13 5 -24 10 -24 16 0 12 -47 -5 -54 -8 -3 -15
-17 -15 -30 0 -50 -70 -71 -152 -46 -55 17 -61 31 -56 140 l3 65 50 11 c66 14
126 7 148 -18z m547 -68 c0 -5 9 -10 20 -10 30 0 24 -27 -14 -66 -32 -33 -56
-38 -56 -12 0 6 -7 20 -16 29 -15 17 -15 20 0 44 16 25 66 36 66 15z m-300
-240 c13 -11 31 -20 41 -20 10 0 23 -9 29 -19 11 -22 14 -161 2 -176 -22 -32
-158 -39 -183 -9 -15 18 -22 112 -12 159 7 33 14 42 41 51 18 5 37 15 44 22
15 15 11 16 38 -8z m-911 -313 c44 -16 61 -67 53 -167 -6 -85 -12 -90 -127
-90 -111 0 -105 -7 -105 135 l0 124 38 4 c71 7 107 6 141 -6z m-219 -347 c3
-41 3 -102 0 -135 l-5 -60 -60 -7 c-34 -3 -94 -3 -135 0 l-75 7 -3 124 c-2 84
1 128 9 137 9 12 39 14 138 12 l126 -3 5 -75z m587 19 c13 -5 24 -20 28 -39 9
-40 -3 -146 -18 -158 -22 -18 -111 -29 -184 -25 l-72 5 -6 39 c-9 50 4 169 19
175 51 19 184 21 233 3z m1577 -244 c6 -9 58 -27 115 -41 63 -15 110 -32 117
-42 12 -16 13 -15 14 3 1 15 3 16 7 5 4 -8 12 -21 20 -28 16 -17 17 -114 1
-130 -7 -7 -19 -12 -27 -12 -8 0 -22 -6 -30 -13 -9 -7 -32 -18 -51 -24 -19 -5
-54 -16 -78 -23 -55 -17 -59 -23 -93 -140 -7 -25 -19 -52 -26 -61 -7 -8 -13
-22 -13 -30 0 -25 -22 -39 -63 -39 -41 0 -141 -29 -132 -38 7 -8 -36 -52 -51
-52 -15 0 -44 -94 -44 -142 0 -38 -15 -58 -42 -58 -10 0 -21 -6 -24 -14 -3 -8
-27 -17 -59 -21 -73 -9 -84 -19 -91 -90 -4 -33 -11 -61 -15 -63 -14 -6 -11
-100 4 -105 9 -4 8 -8 -3 -16 -13 -10 -13 -11 0 -11 13 0 13 -1 0 -10 -10 -6
-11 -10 -2 -10 7 0 12 -16 13 -42 0 -24 3 -38 5 -33 4 11 82 10 160 0 37 -5
42 -10 48 -37 10 -51 7 -143 -6 -156 -7 -7 -22 -12 -35 -12 -14 0 -23 -6 -23
-15 0 -11 -11 -15 -40 -15 -35 0 -47 7 -85 45 l-45 44 0 78 0 78 -128 0 c-128
1 -172 10 -172 39 0 7 -9 25 -21 40 -15 20 -23 50 -30 128 -6 57 -16 108 -22
115 -7 6 -66 16 -131 22 -65 6 -121 13 -124 15 -10 11 -21 94 -22 162 0 99 -5
103 -129 115 -111 11 -113 12 -171 76 -19 21 -21 174 -2 180 6 3 12 13 12 23
0 34 28 50 88 50 58 0 181 15 188 23 3 3 9 56 14 119 11 132 15 148 40 148 10
0 25 7 34 15 19 19 125 20 169 1 18 -7 45 -27 61 -44 28 -30 29 -36 34 -151 3
-85 9 -124 18 -132 8 -6 14 -17 14 -24 0 -32 163 -28 180 5 12 22 42 28 202
43 70 7 132 17 138 23 7 6 16 57 20 114 9 100 10 102 48 140 44 44 67 50 176
44 56 -2 82 -8 90 -19z m-2463 -37 c12 -22 8 -242 -5 -255 -12 -13 -232 -16
-254 -4 -21 11 -22 19 -22 134 0 82 4 127 12 135 8 8 53 12 135 12 115 0 123
-1 134 -22z m607 13 c11 -6 13 -32 10 -109 -3 -96 -4 -101 -33 -128 -32 -29
-80 -43 -158 -44 -86 0 -87 2 -87 150 0 93 3 130 13 133 21 9 241 7 255 -2z
m2712 -20 c39 -8 47 -26 49 -114 1 -63 -11 -83 -54 -91 -19 -4 -35 -11 -35
-16 0 -6 -16 -10 -35 -10 -27 0 -44 9 -74 39 -37 37 -39 43 -43 107 -2 49 1
69 10 72 9 3 10 8 3 16 -7 8 9 10 67 8 42 -2 93 -7 112 -11z m605 -2 c40 -10
44 -14 50 -50 4 -21 4 -57 0 -78 -6 -36 -10 -40 -51 -51 -68 -19 -125 -4 -143
38 -8 17 -21 32 -28 32 -18 0 -16 13 7 43 11 14 20 32 20 41 0 34 64 45 145
25z m-4250 -279 c10 -17 8 -251 -3 -262 -16 -16 -253 -12 -263 4 -14 21 -11
242 3 256 15 15 254 17 263 2z m625 -70 c6 -88 -2 -166 -18 -182 -17 -17 -100
-25 -184 -19 l-73 6 -3 124 c-1 69 0 131 2 138 4 11 35 13 138 11 l133 -3 5
-75z m2694 45 c3 -8 12 -15 21 -15 8 0 20 -11 25 -25 5 -14 14 -25 20 -25 16
0 12 -60 -5 -77 -9 -8 -19 -28 -22 -44 -4 -23 -12 -30 -40 -35 -42 -8 -133 2
-146 15 -5 5 -12 41 -15 79 -5 81 7 112 44 112 13 0 27 7 30 15 4 10 20 15 44
15 24 0 40 -5 44 -15z m-3610 -301 c10 -25 7 -149 -5 -202 -12 -59 -20 -62
-169 -62 l-98 0 -4 38 c-10 78 -9 202 2 222 10 19 20 20 139 20 108 0 130 -3
135 -16z m620 -16 c12 -34 -6 -214 -22 -230 -13 -13 -177 -24 -215 -14 -31 7
-47 65 -47 170 0 113 -9 107 143 104 l132 -3 9 -27z m2728 -6 c16 -16 23 -145
9 -170 -7 -14 -21 -22 -37 -22 -13 0 -27 -7 -30 -15 -4 -10 -20 -15 -44 -15
-24 0 -40 5 -44 15 -3 8 -12 15 -21 15 -8 0 -20 11 -25 25 -5 14 -14 25 -20
25 -17 0 -12 77 5 84 8 3 15 17 15 30 0 14 8 30 18 36 21 13 159 7 174 -8z
m-3675 -265 c4 -5 8 -61 8 -124 -1 -110 -2 -116 -25 -135 -43 -35 -211 -16
-242 27 -13 18 -20 107 -13 170 6 59 8 64 33 68 45 8 230 3 239 -6z m3353 -57
c32 -32 40 -47 40 -76 0 -19 -7 -42 -15 -50 -8 -9 -15 -24 -15 -34 0 -32 -36
-43 -113 -37 -39 3 -74 10 -79 15 -5 5 -12 40 -15 79 -7 81 5 113 43 113 13 0
27 7 30 15 4 10 20 15 45 15 32 0 46 -7 79 -40z m540 30 c0 -5 15 -16 33 -24
30 -12 35 -19 41 -62 6 -49 -10 -84 -40 -84 -7 0 -18 -9 -24 -20 -6 -11 -17
-20 -24 -20 -7 0 -21 9 -31 20 -10 11 -26 20 -35 20 -27 0 -40 22 -40 68 0 53
14 82 40 82 11 0 25 7 32 15 15 16 48 20 48 5z m-4520 -40 c24 -24 26 -82 5
-133 -14 -33 -19 -36 -69 -42 -80 -10 -113 0 -132 41 -20 42 -13 122 13 142
10 7 47 12 90 12 60 0 77 -4 93 -20z m4244 -276 c9 -3 16 -15 16 -25 0 -11 9
-27 20 -36 24 -20 26 -61 5 -69 -8 -4 -15 -13 -15 -21 0 -7 -11 -25 -25 -39
-21 -21 -31 -24 -62 -18 -56 10 -73 22 -73 50 0 13 -7 27 -15 30 -8 4 -15 18
-15 34 0 16 7 30 15 34 8 3 15 14 15 24 0 10 5 23 12 30 12 12 95 16 122 6z
m-907 -308 c14 -11 27 -24 49 -49 6 -7 14 -25 18 -41 5 -22 2 -33 -13 -48 -12
-10 -21 -27 -21 -36 0 -29 -21 -42 -70 -42 -49 0 -70 13 -70 42 0 10 -9 23
-20 30 -24 15 -26 43 -5 52 8 3 15 16 15 29 0 13 9 32 20 42 11 10 20 25 20
32 0 11 8 13 32 8 17 -4 38 -12 45 -19z m575 11 c7 -8 27 -18 43 -24 40 -13
54 -64 36 -131 -17 -64 -26 -72 -81 -72 -91 0 -107 7 -119 55 -20 81 -9 145
25 145 9 0 27 9 41 20 30 24 37 24 55 7z m-3699 -1569 c12 -6 33 -22 46 -36
20 -22 22 -32 17 -71 -3 -25 -10 -49 -14 -53 -4 -4 -30 -11 -56 -14 -47 -7
-50 -6 -82 32 -19 21 -34 44 -34 51 0 13 80 102 93 103 5 0 18 -5 30 -12z
m-284 -329 c36 -20 65 -68 55 -92 -2 -7 -14 -17 -27 -22 -12 -6 -26 -20 -32
-32 -5 -13 -15 -25 -22 -27 -24 -10 -72 19 -92 54 -18 32 -19 40 -7 75 13 36
23 44 85 64 2 0 20 -8 40 -20z m-305 -313 c38 -32 39 -35 32 -82 -3 -26 -10
-52 -14 -56 -4 -4 -29 -11 -54 -14 -42 -6 -49 -4 -76 24 -49 51 -49 66 0 116
24 24 50 44 58 45 8 1 33 -14 54 -33z m4304 -32 c36 -17 43 -49 13 -57 -11 -2
-21 -15 -23 -28 -2 -16 -11 -25 -25 -27 -18 -3 -24 4 -32 35 -14 49 -14 66 1
81 16 16 29 15 66 -4z"/>
<path d="M4937 7023 c-32 -4 -41 -10 -53 -38 -7 -18 -18 -36 -24 -40 -5 -3
-10 -32 -10 -64 0 -70 27 -131 67 -150 15 -7 36 -17 45 -22 10 -5 42 -9 71 -9
44 0 57 4 75 25 12 14 26 25 32 25 6 0 10 39 10 99 0 75 -4 101 -15 111 -8 7
-15 18 -15 25 0 7 -6 17 -13 23 -15 12 -116 21 -170 15z"/>
<path d="M1253 3298 c-47 -16 -53 -46 -53 -263 0 -246 1 -249 55 -270 46 -17
118 -16 166 3 33 13 39 52 39 256 -1 243 -15 278 -117 282 -32 2 -72 -2 -90
-8z"/>
</g>
</svg>
